# xmcd
#
# Track frame offsets: 
#        150
#        12982
#        24754
#        36990
#        47544
#        59837
#        71580
#        82663
#        94203
#        104962
#        116759
#        128088
#        140169
#        150012
#        163175
#        176245
#
# Disc length: 2524 seconds
#
# Revision: 1
# Processed by: cddbd v1.5.2PL0 Copyright (c) Steve Scherf et al.
# Submitted via: ExactAudioCopy v1.0b3
#
DISCID=da09da10
DTITLE=Various Artist - Uncut Presents Honky Tonk Heroes
DYEAR=2013
DGENRE=Country
TTITLE0=Owens, Buck and His Buckaroos - Close Up The Honky Tonks
TTITLE1=Jones, George - You're Still On My Mind
TTITLE2=Wagoner, Porter - A Satisfied Mind
TTITLE3=Louvin Brothers, The - The Angels Rejoiced Last Night
TTITLE4=Young, Faron - Sweet Dreams
TTITLE5=Cash, Johnny - I Still Miss Someone
TTITLE6=Orbison, Roy - Love Hurts
TTITLE7=Price, Ray - Crazy Arms
TTITLE8=Everly Brothers, The - Sleepless Nights
TTITLE9=Williams, Hank - You Win Again
TTITLE10=Thompson, Hank - A Broken Heart And A Glass Of Beer
TTITLE11=Snow, Hank - Miller's Cave
TTITLE12=Locklin, Hank - Please Help Me, I'm Falling
TTITLE13=Tubb, Ernest - Drivin' Nails In My Coffin
TTITLE14=Butler, Carl and Pearl - Don't Let Me Cross Over
TTITLE15=Flatt and Scruggs - Dim Lights Thick Smoke
EXTD=
EXTT0=
EXTT1=
EXTT2=
EXTT3=
EXTT4=
EXTT5=
EXTT6=
EXTT7=
EXTT8=
EXTT9=
EXTT10=
EXTT11=
EXTT12=
EXTT13=
EXTT14=
EXTT15=
PLAYORDER=
